<svg width="20" height="20" viewBox="0 0 20 20" fill="none" xmlns="http://www.w3.org/2000/svg">
<path fill-rule="evenodd" clip-rule="evenodd" d="M17.6053 2.40978C16.9822 1.78465 15.887 1.93117 15.2603 2.5593L12.0712 5.74092L6.15605 3.53049C5.58944 3.38397 5.01883 3.19443 4.3162 3.89907C3.95763 4.25814 3.21248 5.00529 4.3162 6.111L8.37198 9.43164L5.73298 12.0652L3.27049 11.4495C2.90542 11.3555 2.65938 11.429 2.47184 11.6361C2.37732 11.7541 1.69169 12.2622 2.16978 12.7413L5.03283 14.9687L7.26027 17.8318C7.60634 18.1789 7.9279 17.9623 8.36748 17.5447C8.64604 17.2657 8.58603 17.1222 8.50202 16.7156L7.94591 14.2701L10.5669 11.6401L13.8826 15.6969C14.9858 16.8026 15.7314 16.0549 16.09 15.6969C16.7931 14.9917 16.6041 14.4206 16.4576 13.853L14.2656 7.92786L17.4418 4.74072C18.0684 4.1131 18.2289 3.0344 17.6053 2.40978Z" fill="#3688FF"/>
</svg>
