<svg width="36" height="36" viewBox="0 0 36 36" fill="none" xmlns="http://www.w3.org/2000/svg">
<path d="M26.2489 15.0701V14.2411C26.2489 9.68968 22.5557 6 18 6C13.4442 6 9.75106 9.68968 9.75106 14.2411V15.0701C9.75106 16.0649 9.45632 17.0374 8.90398 17.8652L7.55044 19.8935C6.31411 21.7462 7.25795 24.2646 9.40822 24.8505C15.0333 26.3832 20.9667 26.3832 26.5917 24.8505C28.7421 24.2646 29.6859 21.7462 28.4495 19.8935L27.096 17.8652C26.5437 17.0374 26.2489 16.0649 26.2489 15.0701Z" stroke="black" stroke-width="1.8"/>
<path d="M13 26C13.7278 28.3304 15.6916 30 18 30C20.3083 30 22.2722 28.3304 23 26" stroke="black" stroke-width="1.8" stroke-linecap="round"/>
</svg>
