<svg width="16" height="16" viewBox="0 0 16 16" fill="none" xmlns="http://www.w3.org/2000/svg">
<path d="M1.33301 8.00002C1.33301 5.48586 1.33301 4.22879 2.11405 3.44773C2.89511 2.66669 4.15218 2.66669 6.66634 2.66669H9.33301C11.8471 2.66669 13.1043 2.66669 13.8853 3.44773C14.6663 4.22879 14.6663 5.48586 14.6663 8.00002V9.33335C14.6663 11.8475 14.6663 13.1046 13.8853 13.8856C13.1043 14.6667 11.8471 14.6667 9.33301 14.6667H6.66634C4.15218 14.6667 2.89511 14.6667 2.11405 13.8856C1.33301 13.1046 1.33301 11.8475 1.33301 9.33335V8.00002Z" stroke="black"/>
<path d="M4.66699 2.66669V1.66669" stroke="black" stroke-linecap="round"/>
<path d="M11.333 2.66669V1.66669" stroke="black" stroke-linecap="round"/>
<path d="M1.33301 6H14.6663" stroke="black" stroke-linecap="round"/>
</svg>
