<svg width="20" height="20" viewBox="0 0 20 20" fill="none" xmlns="http://www.w3.org/2000/svg">
<g clip-path="url(#clip0_2411_3919)">
<path d="M9.99967 18.3334C5.39734 18.3334 1.66634 14.6024 1.66634 10C1.66634 5.39765 5.39734 1.66669 9.99967 1.66669C14.602 1.66669 18.333 5.39765 18.333 10C18.333 11.3331 18.02 12.593 17.4635 13.7104C17.3156 14.0074 17.2663 14.3468 17.3521 14.6672L17.8484 16.5223C18.0639 17.3275 17.3272 18.0642 16.5219 17.8488L14.6668 17.3524C14.3464 17.2667 14.007 17.3159 13.7101 17.4638C12.5927 18.0204 11.3328 18.3334 9.99967 18.3334Z" stroke="black" stroke-width="1.5"/>
</g>
<defs>
<clipPath id="clip0_2411_3919">
<rect width="20" height="20" fill="white" transform="matrix(-1 0 0 1 20 0)"/>
</clipPath>
</defs>
</svg>
