<svg width="16" height="16" viewBox="0 0 16 16" fill="none" xmlns="http://www.w3.org/2000/svg">
<path d="M5.72252 2.72671C6.73583 0.908905 7.24247 0 7.99999 0C8.75751 0 9.26415 0.908897 10.2774 2.7267L10.5396 3.19699C10.8276 3.71355 10.9715 3.97184 11.1961 4.14225C11.4205 4.31267 11.7001 4.37593 12.2593 4.50245L12.7684 4.61763C14.7361 5.06286 15.72 5.28546 15.9541 6.03819C16.1881 6.79089 15.5174 7.57529 14.1759 9.14393L13.8289 9.54977C13.4477 9.99553 13.257 10.2184 13.1713 10.4942C13.0856 10.7699 13.1144 11.0673 13.172 11.6621L13.2245 12.2035C13.4273 14.2965 13.5287 15.343 12.9159 15.8082C12.303 16.2734 11.3818 15.8492 9.53943 15.001L9.06279 14.7815C8.53927 14.5404 8.27751 14.4199 7.99999 14.4199C7.72247 14.4199 7.46071 14.5404 6.93719 14.7815L6.46055 15.001C4.61814 15.8492 3.69694 16.2734 3.08412 15.8082C2.47129 15.343 2.5727 14.2965 2.77552 12.2035L2.82798 11.6621C2.88562 11.0673 2.91444 10.7699 2.82869 10.4942C2.74294 10.2184 2.55234 9.99553 2.17113 9.54977L1.82408 9.14393C0.482601 7.57529 -0.188142 6.79089 0.0459375 6.03819C0.280017 5.28546 1.26389 5.06286 3.23163 4.61763L3.74071 4.50245C4.29988 4.37593 4.57946 4.31267 4.80395 4.14225C5.02844 3.97184 5.17242 3.71356 5.46037 3.19699L5.72252 2.72671Z" fill="white"/>
</svg>
