<svg width="24" height="24" viewBox="0 0 24 24" fill="none" xmlns="http://www.w3.org/2000/svg">
<path fill-rule="evenodd" clip-rule="evenodd" d="M5.67742 2C6.05154 2 6.35484 2.31236 6.35484 2.69767V3.70712L7.77614 3.41435C9.3958 3.08073 11.0747 3.23949 12.6083 3.87127L12.7922 3.94704C14.0701 4.47347 15.4765 4.57178 16.8118 4.22799C17.9233 3.9418 19 4.80763 19 5.98762V12.8407C19 13.7602 18.3924 14.5617 17.5262 14.7847L17.3326 14.8345C15.5961 15.2816 13.767 15.1538 12.1051 14.4691C10.8155 13.9379 9.40379 13.8044 8.04185 14.0849L6.35484 14.4325V21.3023C6.35484 21.6876 6.05154 22 5.67742 22C5.30329 22 5 21.6876 5 21.3023V2.69767C5 2.31236 5.30329 2 5.67742 2ZM6.35484 13.0094L7.77614 12.7167C9.3958 12.3831 11.0747 12.5419 12.6083 13.1736C14.0057 13.7493 15.5438 13.8567 17.004 13.4808L17.1976 13.431C17.4606 13.3633 17.6452 13.1199 17.6452 12.8407V5.98762C17.6452 5.7154 17.3968 5.51566 17.1403 5.58168C15.5288 5.9966 13.8314 5.87795 12.289 5.24259L12.1051 5.16682C10.8155 4.63556 9.40379 4.50207 8.04185 4.7826L6.35484 5.13009V13.0094Z" fill="#3688FF" stroke="#3688FF" stroke-width="0.385714"/>
</svg>
