<svg width="48" height="48" viewBox="0 0 48 48" fill="none" xmlns="http://www.w3.org/2000/svg">
<path d="M23.9995 0C13.0835 0 4.23438 8.85056 4.23438 19.7651C4.23438 30.6797 19.769 48 23.9995 48C28.2285 48 43.7646 30.6797 43.7646 19.7651C43.7646 8.85056 34.9156 0 23.9995 0ZM23.9995 28.8369C18.9883 28.8369 14.9277 24.7749 14.9277 19.7651C14.9277 14.7539 18.9883 10.6933 23.9995 10.6933C29.0093 10.6933 33.0713 14.7539 33.0713 19.7651C33.0713 24.7749 29.0093 28.8369 23.9995 28.8369Z" fill="url(#paint0_linear_202_1832)"/>
<circle cx="24" cy="20" r="13" fill="white"/>
<defs>
<linearGradient id="paint0_linear_202_1832" x1="23.9995" y1="0" x2="23.9995" y2="48" gradientUnits="userSpaceOnUse">
<stop stop-color="#3688FF"/>
<stop offset="1" stop-color="#00C2FF"/>
</linearGradient>
</defs>
</svg>
