<svg width="16" height="16" viewBox="0 0 16 16" fill="none" xmlns="http://www.w3.org/2000/svg">
<path d="M9.88452 3.56221L9.8845 3.56217L9.62234 3.09188L9.62233 3.09186C9.10347 2.16104 8.75406 1.5382 8.44734 1.13767C8.14882 0.747844 8.02543 0.749637 8.00166 0.749983C8.00103 0.749992 8.00048 0.75 7.99999 0.75C7.9995 0.75 7.99895 0.749992 7.99833 0.749983C7.97455 0.749637 7.85116 0.747843 7.55264 1.13767C7.24591 1.53821 6.89649 2.16106 6.37762 3.09188L6.11547 3.56216C6.09818 3.59317 6.08103 3.62407 6.06398 3.6548C5.82912 4.07804 5.61091 4.47129 5.25743 4.73962C4.89956 5.0113 4.4645 5.10879 4.00636 5.21144C3.97309 5.2189 3.93971 5.22638 3.90622 5.23396L3.39714 5.34914C2.38779 5.57752 1.71828 5.7312 1.26364 5.91037C0.823141 6.08396 0.778775 6.20731 0.762108 6.2609L0.762105 6.26091C0.742902 6.32266 0.714161 6.46501 0.978883 6.88553C1.2487 7.31414 1.70724 7.85334 2.39407 8.65648L2.39408 8.65649L2.74113 9.06232C2.74113 9.06233 2.74113 9.06233 2.74114 9.06233C2.76332 9.08827 2.78542 9.11402 2.80739 9.13962C3.12287 9.50721 3.41195 9.84405 3.54486 10.2715L9.88452 3.56221ZM9.88452 3.56221C9.9019 3.59339 9.91914 3.62444 9.93629 3.65534M9.88452 3.56221L9.93629 3.65534M12.0938 5.23396L12.0938 5.23396C12.0603 5.22639 12.027 5.21891 11.9937 5.21147C11.5355 5.1088 11.1006 5.01134 10.7427 4.7397L12.0938 5.23396ZM12.0938 5.23396L12.6029 5.34914C12.6029 5.34914 12.6029 5.34914 12.6029 5.34914C13.6122 5.57752 14.2817 5.7312 14.7363 5.91037C15.1769 6.08397 15.2212 6.20732 15.2379 6.2609L15.2379 6.26091M12.0938 5.23396L15.2379 6.26091M15.2379 6.26091C15.2571 6.32267 15.2858 6.46502 15.0211 6.88553C14.7513 7.31414 14.2928 7.85333 13.6059 8.65648L13.6059 8.65651M15.2379 6.26091L13.6059 8.65651M13.6059 8.65651L13.2589 9.06233C13.2589 9.06234 13.2589 9.06234 13.2589 9.06235C13.2366 9.08834 13.2145 9.11415 13.1925 9.1398C12.8771 9.50729 12.588 9.84411 12.4551 10.2715L12.455 10.2716M13.6059 8.65651L12.455 10.2716M12.455 10.2716C12.3232 10.6959 12.367 11.1401 12.4154 11.631C12.4187 11.6653 12.4221 11.6997 12.4255 11.7344L12.4255 11.7345M12.455 10.2716L12.4255 11.7345M12.4255 11.7345L12.478 12.2759C12.478 12.2759 12.478 12.2759 12.478 12.2759C12.5817 13.3465 12.6497 14.0675 12.6268 14.5829C12.6039 15.0971 12.4965 15.1849 12.4624 15.2108C12.4618 15.2112 12.4612 15.2117 12.4606 15.2122C12.4357 15.2316 12.3421 15.3041 11.8953 15.1761C11.4268 15.0419 10.7983 14.7549 9.85317 14.3198C9.85314 14.3197 9.85311 14.3197 9.85308 14.3197L9.37653 14.1002L9.37646 14.1002M12.4255 11.7345L9.37646 14.1002M9.37646 14.1002C9.34444 14.0855 9.31254 14.0707 9.28074 14.056C8.85513 13.8589 8.44705 13.6699 7.99999 13.6699C7.55294 13.6699 7.14485 13.8589 6.71924 14.056C6.68744 14.0707 6.65555 14.0855 6.62353 14.1002L6.62345 14.1002M9.37646 14.1002L6.62345 14.1002M6.62345 14.1002L6.1469 14.3197C6.14687 14.3197 6.14684 14.3197 6.14681 14.3198C5.20172 14.7549 4.57322 15.0419 4.10466 15.1761C3.65792 15.3041 3.56435 15.2316 3.53948 15.2123C3.5388 15.2117 3.53818 15.2112 3.53759 15.2108L3.08412 15.8082L3.53759 15.2108C3.50345 15.1849 3.39611 15.0971 3.37321 14.5829C3.35025 14.0675 3.41828 13.3464 3.52202 12.2759L2.77552 12.2035M6.62345 14.1002L2.77552 12.2035M2.77552 12.2035L3.52202 12.2759L3.57449 11.7344M2.77552 12.2035L3.57449 11.7344M9.93629 3.65534C10.171 4.07823 10.3892 4.47137 10.7426 4.73962L9.93629 3.65534ZM3.57449 11.7344C3.57785 11.6998 3.58124 11.6653 3.58462 11.6311M3.57449 11.7344L3.58462 11.6311M3.58462 11.6311C3.63302 11.1402 3.67683 10.6959 3.54486 10.2715L3.58462 11.6311ZM0.0461052 6.03825L0.0459375 6.03819L0.0461052 6.03825Z" stroke="white" stroke-width="1.5"/>
</svg>
