<svg width="16" height="17" viewBox="0 0 16 17" fill="none" xmlns="http://www.w3.org/2000/svg">
<g id="ico_airplane" clip-path="url(#clip0_121_903)">
<path id="airplane" fill-rule="evenodd" clip-rule="evenodd" d="M15.6042 0.909927C14.9812 0.284927 13.8862 0.431417 13.2597 1.05942L10.0712 4.24042L4.15719 2.03043C3.59069 1.88393 3.0202 1.69443 2.3177 2.39893C1.9592 2.75793 1.2142 3.50493 2.3177 4.61043L6.37269 7.93042L3.7342 10.5634L1.27219 9.94792C0.907194 9.85392 0.661202 9.92743 0.473702 10.1344C0.379202 10.2524 -0.3063 10.7604 0.1717 11.2394L3.03419 13.4664L5.26119 16.3289C5.60719 16.6759 5.92869 16.4594 6.36819 16.0419C6.64669 15.7629 6.58669 15.6194 6.50269 15.2129L5.94669 12.7679L8.56719 10.1384L11.8822 14.1944C12.9852 15.2999 13.7307 14.5524 14.0892 14.1944C14.7922 13.4894 14.6032 12.9184 14.4567 12.3509L12.2652 6.42693L15.4407 3.24042C16.0672 2.61292 16.2277 1.53443 15.6042 0.909927Z" fill="white"/>
</g>
<defs>
<clipPath id="clip0_121_903">
<rect width="16" height="16" fill="white" transform="translate(0 0.5)"/>
</clipPath>
</defs>
</svg>
