<svg width="30" height="30" viewBox="0 0 30 30" fill="none" xmlns="http://www.w3.org/2000/svg">
<path d="M8.755 23.283L7 11H23L21.245 23.283C21.1769 23.7596 20.9391 24.1956 20.5754 24.511C20.2117 24.8264 19.7464 25 19.265 25H10.735C10.2536 25 9.7883 24.8264 9.42458 24.511C9.06086 24.1956 8.82312 23.7596 8.755 23.283ZM24 7H19V6C19 5.73478 18.8946 5.48043 18.7071 5.29289C18.5196 5.10536 18.2652 5 18 5H12C11.7348 5 11.4804 5.10536 11.2929 5.29289C11.1054 5.48043 11 5.73478 11 6V7H6C5.73478 7 5.48043 7.10536 5.29289 7.29289C5.10536 7.48043 5 7.73478 5 8C5 8.26522 5.10536 8.51957 5.29289 8.70711C5.48043 8.89464 5.73478 9 6 9H24C24.2652 9 24.5196 8.89464 24.7071 8.70711C24.8946 8.51957 25 8.26522 25 8C25 7.73478 24.8946 7.48043 24.7071 7.29289C24.5196 7.10536 24.2652 7 24 7Z" fill="#FF4343"/>
</svg>
