<svg width="15" height="15" viewBox="0 0 15 15" fill="none" xmlns="http://www.w3.org/2000/svg">
<path d="M4.7111 3.5186C5.12876 3.5186 5.46741 3.17993 5.46741 2.76206V1.57167C5.46743 1.15404 5.12876 0.815369 4.7111 0.815369C4.29326 0.815369 3.95459 1.15404 3.95459 1.57167V2.76206C3.95459 3.17995 4.29326 3.5186 4.7111 3.5186Z" fill="#3688FF"/>
<path d="M10.2891 3.5186C10.7068 3.5186 11.0454 3.17993 11.0454 2.76206V1.57167C11.0455 1.15404 10.7068 0.815369 10.2891 0.815369C9.87126 0.815369 9.53259 1.15404 9.53259 1.57167V2.76206C9.53262 3.17995 9.87126 3.5186 10.2891 3.5186Z" fill="#3688FF"/>
<path d="M12.1784 1.89345H11.7103V2.76206C11.7103 3.54588 11.0728 4.18338 10.2892 4.18338C9.50543 4.18338 8.86791 3.54588 8.86791 2.76206V1.89345H6.13219V2.76206C6.13219 3.54588 5.4947 4.18338 4.71111 4.18338C3.92731 4.18338 3.28982 3.54588 3.28982 2.76206V1.89345H2.82176C1.81573 1.89345 1.00012 2.70905 1.00012 3.71509V12.363C1.00012 13.369 1.81573 14.1846 2.82176 14.1846H12.1784C13.1844 14.1846 14 13.369 14 12.363V3.71509C14 2.70905 13.1844 1.89345 12.1784 1.89345ZM12.5664 12.0431C12.5664 12.5086 12.1877 12.8873 11.7222 12.8873H3.27791C2.81247 12.8873 2.43377 12.5086 2.43377 12.0431V5.27725H12.5664V12.0431Z" fill="#3688FF"/>
</svg>
