<svg width="36" height="36" viewBox="0 0 36 36" fill="none" xmlns="http://www.w3.org/2000/svg">
<path d="M6.75 33.0011H3.09023C1.38867 33.0011 0 31.6124 0 29.9073V13.5913C0 11.8863 1.38867 10.5011 3.09023 10.5011H7.49883C7.90664 10.5011 8.29688 10.6663 8.58164 10.9616C8.86289 11.257 9.01406 11.6507 9 12.0585L8.25117 31.5597C8.21953 32.3613 7.55508 33.0011 6.75 33.0011ZM3.09023 13.4999C3.04102 13.4999 2.99883 13.5421 2.99883 13.5913V29.9073C2.99883 29.9566 3.04102 29.9988 3.09023 29.9988H5.30508L5.94141 13.4999H3.09023Z" fill="#00C2FF"/>
<path d="M28.4909 33.0012H9.69287L10.5577 10.5012H14.6956L17.2269 3.40664C17.9546 1.36758 19.8987 0 22.0608 0C23.5515 0 24.9647 0.646875 25.9386 1.77188C26.9124 2.89688 27.3519 4.3875 27.1409 5.86055L26.4765 10.5012H31.4897C33.9753 10.5012 35.9968 12.5227 35.9968 15.0082L35.9616 15.3352L32.9944 28.6734C32.903 31.0746 30.9167 33.0012 28.4909 33.0012ZM12.8077 29.9988H28.4909C29.3206 29.9988 29.9991 29.3238 29.9991 28.4906L30.0343 28.1637L32.9944 14.8711C32.9241 14.1047 32.2772 13.5 31.4933 13.5H23.0206L24.1737 5.43516C24.2616 4.81289 24.0858 4.21172 23.6745 3.73711C23.2632 3.2625 22.6901 3.00234 22.0608 3.00234C21.1608 3.00234 20.3558 3.57188 20.0534 4.41914L16.8085 13.5H13.444L12.8077 29.9988Z" fill="#3688FF"/>
</svg>
