<svg width="36" height="36" viewBox="0 0 36 36" fill="none" xmlns="http://www.w3.org/2000/svg">
<path d="M13.6722 21.0024C8.91904 21.0024 5.04834 17.1352 5.04834 12.3785C5.04834 7.62189 8.91553 3.7547 13.6722 3.7547C18.4288 3.7547 22.296 7.62189 22.296 12.3785C22.296 17.1352 18.4253 21.0024 13.6722 21.0024ZM13.6722 6.75353C10.5714 6.75353 8.04717 9.27775 8.04717 12.3785C8.04717 15.4793 10.5714 18.0035 13.6722 18.0035C16.7729 18.0035 19.2972 15.4793 19.2972 12.3785C19.2972 9.27775 16.7729 6.75353 13.6722 6.75353Z" fill="#3688FF"/>
<path d="M20.7882 34.4988H6.55693C3.86397 34.4988 1.67725 32.3086 1.67725 29.6191V26.332C1.67725 21.7406 5.41084 18.0035 10.0058 18.0035H17.3464C21.9378 18.0035 25.6749 21.7406 25.6749 26.332V29.6191C25.6679 32.3086 23.4812 34.4988 20.7882 34.4988ZM10.0022 21.0023C7.06318 21.0023 4.67607 23.3929 4.67607 26.3285V29.6156C4.67607 30.6527 5.51982 31.4964 6.55693 31.4964H20.7882C21.8253 31.4964 22.669 30.6527 22.669 29.6156V26.3285C22.669 23.3894 20.2784 21.0023 17.3394 21.0023H10.0022Z" fill="#3688FF"/>
<path d="M29.7844 32.9977C28.9547 32.9977 28.2832 32.3262 28.2832 31.4965C28.2832 30.6668 28.9547 29.9953 29.7844 29.9953C30.8215 29.9953 31.6652 29.1516 31.6652 28.1145V24.8274C31.6652 21.8883 29.2746 19.5012 26.3355 19.5012H25.8328C25.1367 19.5012 24.532 19.0231 24.3738 18.3445C24.2156 17.666 24.5426 16.9699 25.1648 16.657C27.0914 15.6973 28.2902 13.7707 28.2902 11.6262C28.2902 8.5254 25.766 6.00118 22.6652 6.00118C21.8355 6.00118 21.1641 5.3297 21.1641 4.50001C21.1641 3.67032 21.8355 2.99884 22.6652 2.99884C27.4184 2.99884 31.2891 6.86603 31.2891 11.6227C31.2891 13.6547 30.5895 15.5567 29.359 17.0649C32.4633 18.2813 34.6676 21.3047 34.6676 24.8309V28.118C34.6676 30.8109 32.4773 32.9977 29.7844 32.9977Z" fill="#00C2FF"/>
</svg>
